<svg width="21" height="20" viewBox="0 0 21 20" fill="none" xmlns="http://www.w3.org/2000/svg">
<path fill-rule="evenodd" clip-rule="evenodd" d="M0.842786 2.06083C0.842786 1.34968 1.41995 0.772521 2.13109 0.772521L13.9148 0.772522C14.626 0.772522 15.2031 1.34968 15.2031 2.06083C15.2031 2.77198 14.626 3.34914 13.9148 3.34914L2.13109 3.34914C1.41995 3.34914 0.842786 2.77198 0.842786 2.06083" fill="white"/>
<path fill-rule="evenodd" clip-rule="evenodd" d="M0.843081 10.0775C0.843081 9.36638 1.42024 8.78921 2.13139 8.78921L19.5545 8.78922C20.2656 8.78922 20.8428 9.36638 20.8428 10.0775C20.8428 10.7887 20.2656 11.3658 19.5545 11.3658L2.13139 11.3658C1.42024 11.3658 0.843081 10.7887 0.843081 10.0775" fill="white"/>
<path fill-rule="evenodd" clip-rule="evenodd" d="M0.844274 17.9609C0.844274 17.2498 1.42144 16.6726 2.13258 16.6726L7.68777 16.6726C8.39891 16.6726 8.97607 17.2498 8.97607 17.9609C8.97607 18.6721 8.39891 19.2492 7.68777 19.2492L2.13258 19.2492C1.42144 19.2492 0.844274 18.6721 0.844274 17.9609" fill="white"/>
</svg>
