<svg width="20" height="17" viewBox="0 0 20 17" fill="none" xmlns="http://www.w3.org/2000/svg">
<path d="M2.4504 9.57259L9.40302 16.1038C9.64251 16.3288 9.76226 16.4413 9.90344 16.469C9.96703 16.4815 10.0324 16.4815 10.096 16.469C10.2372 16.4413 10.3569 16.3288 10.5964 16.1038L17.5491 9.57259C19.5052 7.73497 19.7428 4.71098 18.0975 2.59044L17.7882 2.19172C15.82 -0.345042 11.8694 0.0803919 10.4864 2.97803C10.291 3.38734 9.70841 3.38734 9.51306 2.97803C8.1301 0.0803919 4.17945 -0.345039 2.21127 2.19172L1.90192 2.59045C0.256675 4.71098 0.494226 7.73497 2.4504 9.57259Z" stroke="black"/>
</svg>
