<svg width="20" height="19" viewBox="0 0 20 19" fill="none" xmlns="http://www.w3.org/2000/svg">
<path d="M6 9.04907L6 5.04907C6 2.83993 7.79086 1.04907 10 1.04907V1.04907C12.2091 1.04907 14 2.83993 14 5.04907L14 9.04907" stroke="black" stroke-linecap="round"/>
<path d="M1.69435 9.71689C1.83942 7.97599 1.91196 7.10554 2.48605 6.57731C3.06013 6.04907 3.9336 6.04907 5.68053 6.04907H14.3195C16.0664 6.04907 16.9399 6.04907 17.514 6.57731C18.088 7.10554 18.1606 7.97599 18.3057 9.71689L18.8195 15.883C18.904 16.8965 18.9462 17.4033 18.6491 17.7262C18.352 18.0491 17.8435 18.0491 16.8264 18.0491H3.1736C2.15655 18.0491 1.64802 18.0491 1.35092 17.7262C1.05382 17.4033 1.09605 16.8965 1.18051 15.883L1.69435 9.71689Z" stroke="black"/>
</svg>
