<svg width="80" height="33" viewBox="0 0 80 33" fill="none" xmlns="http://www.w3.org/2000/svg">
<path d="M0.939941 2.64416H5.50839C7.52035 2.64416 9.02471 3.03178 10.0215 3.80704C11.1659 4.69304 11.7381 5.96666 11.7381 7.62792C11.7381 9.27071 11.0459 10.4797 9.66152 11.255C10.6029 11.4027 11.4058 11.7903 12.0703 12.4179C12.9563 13.2669 13.3993 14.4206 13.3993 15.8788C13.3993 17.4293 12.8733 18.6752 11.8211 19.6166C10.6952 20.6134 9.13546 21.1118 7.14195 21.1118H0.939941V2.64416ZM4.53932 5.57904V10.3136H5.56376C5.74835 10.3136 5.91447 10.3136 6.06214 10.3136C6.22826 10.2952 6.45899 10.2398 6.75433 10.1475C7.06812 10.0552 7.32654 9.93521 7.52958 9.78755C7.75108 9.62142 7.94489 9.38146 8.11102 9.06767C8.27714 8.73542 8.3602 8.34779 8.3602 7.90479C8.3602 7.11108 8.10179 6.52964 7.58495 6.16048C7.06812 5.77285 6.40362 5.57904 5.59145 5.57904H4.53932ZM4.53932 13.0824V18.1769H6.08983C7.16041 18.1769 7.98181 18.0107 8.55402 17.6785C9.31081 17.2355 9.68921 16.5248 9.68921 15.5466C9.68921 14.5498 9.23698 13.8484 8.33252 13.4423C7.81568 13.2023 6.99429 13.0824 5.86833 13.0824H4.53932Z" fill="#33343D"/>
<path d="M14.5709 0.373779H17.9488V21.1118H14.5709V0.373779Z" fill="#33343D"/>
<path d="M28.1732 17.2632L31.2742 17.7616C31.145 18.0938 30.9697 18.4261 30.7482 18.7583C30.5451 19.0721 30.2221 19.469 29.7791 19.9489C29.3361 20.4103 28.7362 20.7887 27.9794 21.0841C27.2226 21.3609 26.3551 21.4994 25.3768 21.4994C23.494 21.4994 21.962 20.9364 20.7807 19.8104C19.5255 18.6291 18.8979 17.0694 18.8979 15.1312C18.8979 13.2116 19.507 11.6426 20.7253 10.4244C21.8697 9.2984 23.3741 8.73542 25.2384 8.73542C27.2688 8.73542 28.8285 9.39069 29.9176 10.7012C30.8774 11.8457 31.3573 13.4146 31.3573 15.4081V15.685H22.3865C22.3865 16.4972 22.5804 17.1709 22.968 17.7062C23.5217 18.463 24.3247 18.8414 25.3768 18.8414C26.632 18.8414 27.5641 18.3153 28.1732 17.2632ZM22.4973 13.5254H28.1732C28.044 12.7501 27.7026 12.1594 27.1488 11.7534C26.6135 11.3288 26.0044 11.1165 25.3214 11.1165C24.6569 11.1165 24.0478 11.3288 23.494 11.7534C22.9588 12.1779 22.6265 12.7686 22.4973 13.5254Z" fill="#33343D"/>
<path d="M40.507 10.009L38.8457 11.9749C38.2735 11.4396 37.6182 11.1719 36.8799 11.1719C36.4738 11.1719 36.1508 11.2642 35.9108 11.4488C35.6893 11.6149 35.5786 11.8457 35.5786 12.141C35.5786 12.6209 35.9385 12.9808 36.6584 13.2208L37.4613 13.47C39.0303 13.9684 40.0455 14.5406 40.507 15.1866C40.913 15.7404 41.1161 16.4049 41.1161 17.1801C41.1161 18.3984 40.6731 19.4136 39.7871 20.2258C38.8642 21.0748 37.6644 21.4994 36.1877 21.4994C34.3234 21.4994 32.7729 20.8349 31.5362 19.5059L33.3082 17.457C34.1019 18.3799 34.9879 18.8414 35.9662 18.8414C36.4461 18.8414 36.843 18.7306 37.1568 18.5091C37.4706 18.2692 37.6275 17.9461 37.6275 17.5401C37.6275 16.9863 37.2768 16.5802 36.5753 16.3218L35.8001 16.0449C34.6003 15.6204 33.742 15.1405 33.2251 14.6052C32.616 13.9591 32.3115 13.1931 32.3115 12.3071C32.3115 11.1996 32.7268 10.2952 33.5574 9.59373C34.2773 9.02152 35.3202 8.73542 36.6861 8.73542C38.1258 8.73542 39.3995 9.15996 40.507 10.009Z" fill="#33343D"/>
<path d="M50.0397 10.009L48.3784 11.9749C47.8062 11.4396 47.151 11.1719 46.4126 11.1719C46.0065 11.1719 45.6835 11.2642 45.4436 11.4488C45.2221 11.6149 45.1113 11.8457 45.1113 12.141C45.1113 12.6209 45.4713 12.9808 46.1911 13.2208L46.9941 13.47C48.563 13.9684 49.5782 14.5406 50.0397 15.1866C50.4458 15.7404 50.6488 16.4049 50.6488 17.1801C50.6488 18.3984 50.2058 19.4136 49.3198 20.2258C48.3969 21.0748 47.1971 21.4994 45.7204 21.4994C43.8561 21.4994 42.3056 20.8349 41.0689 19.5059L42.8409 17.457C43.6346 18.3799 44.5206 18.8414 45.4989 18.8414C45.9789 18.8414 46.3757 18.7306 46.6895 18.5091C47.0033 18.2692 47.1602 17.9461 47.1602 17.5401C47.1602 16.9863 46.8095 16.5802 46.1081 16.3218L45.3328 16.0449C44.133 15.6204 43.2747 15.1405 42.7579 14.6052C42.1487 13.9591 41.8442 13.1931 41.8442 12.3071C41.8442 11.1996 42.2595 10.2952 43.0901 9.59373C43.81 9.02152 44.8529 8.73542 46.2188 8.73542C47.6586 8.73542 48.9322 9.15996 50.0397 10.009Z" fill="#33343D"/>
<path d="M57.0806 12.0025H54.7548V21.1118H51.3769V12.0025H50.0479V9.12304H51.3769V5.02529H54.7548V9.12304H57.0806V12.0025Z" fill="#33343D"/>
<path d="M65.8445 17.2632L68.9455 17.7616C68.8163 18.0938 68.641 18.4261 68.4195 18.7583C68.2164 19.0721 67.8934 19.469 67.4504 19.9489C67.0074 20.4103 66.4075 20.7887 65.6507 21.0841C64.8939 21.3609 64.0264 21.4994 63.0481 21.4994C61.1653 21.4994 59.6333 20.9364 58.452 19.8104C57.1968 18.6291 56.5692 17.0694 56.5692 15.1312C56.5692 13.2116 57.1783 11.6426 58.3966 10.4244C59.541 9.2984 61.0454 8.73542 62.9097 8.73542C64.9401 8.73542 66.4998 9.39069 67.5889 10.7012C68.5487 11.8457 69.0286 13.4146 69.0286 15.4081V15.685H60.0578C60.0578 16.4972 60.2517 17.1709 60.6393 17.7062C61.193 18.463 61.996 18.8414 63.0481 18.8414C64.3033 18.8414 65.2354 18.3153 65.8445 17.2632ZM60.1686 13.5254H65.8445C65.7153 12.7501 65.3739 12.1594 64.8201 11.7534C64.2848 11.3288 63.6757 11.1165 62.9927 11.1165C62.3282 11.1165 61.7191 11.3288 61.1653 11.7534C60.63 12.1779 60.2978 12.7686 60.1686 13.5254Z" fill="#33343D"/>
<path d="M79.0089 9.45529V12.7778C78.2521 12.0764 77.3292 11.7257 76.2401 11.7257C75.1695 11.7257 74.3389 12.0579 73.7482 12.7224C73.1576 13.3685 72.8622 14.1622 72.8622 15.1036C72.8622 16.0818 73.1853 16.894 73.8313 17.5401C74.4958 18.1861 75.3357 18.5091 76.3509 18.5091C77.3476 18.5091 78.2336 18.1584 79.0089 17.457V20.7518C78.0121 21.2502 76.9785 21.4994 75.9079 21.4994C74.0436 21.4994 72.5023 20.9179 71.2841 19.7551C70.0104 18.5553 69.3736 17.0232 69.3736 15.1589C69.3736 13.1285 70.0658 11.5042 71.4502 10.2859C72.6131 9.25225 74.0528 8.73542 75.7694 8.73542C76.9323 8.73542 78.0121 8.97538 79.0089 9.45529Z" fill="#33343D"/>
<path d="M76.7235 24.6084V32.6029H79.9484V24.6084L76.7235 24.6084Z" fill="url(#paint0_linear_109_3335)"/>
<path d="M72.3015 24.6084V32.6029H75.5265V24.6084L72.3015 24.6084Z" fill="url(#paint1_linear_109_3335)"/>
<path d="M67.8814 24.6084V32.6029H71.1063V24.6084L67.8814 24.6084Z" fill="url(#paint2_linear_109_3335)"/>
<path d="M63.6293 24.6084V32.6029H66.2464L66.2464 24.6084L63.6293 24.6084Z" fill="url(#paint3_linear_109_3335)"/>
<path d="M59.0842 24.6084V32.6029H61.7013L61.7013 24.6084L59.0842 24.6084Z" fill="url(#paint4_linear_109_3335)"/>
<path d="M54.7107 24.6084V32.6029L57.0542 32.6029V24.6084L54.7107 24.6084Z" fill="url(#paint5_linear_109_3335)"/>
<path d="M50.338 24.6084V32.6029H52.5111V24.6084L50.338 24.6084Z" fill="url(#paint6_linear_109_3335)"/>
<path d="M45.2113 24.6084V32.6029H47.1193V24.6084L45.2113 24.6084Z" fill="url(#paint7_linear_109_3335)"/>
<path d="M40.2988 24.6084V32.6029H42.0301V24.6084L40.2988 24.6084Z" fill="url(#paint8_linear_109_3335)"/>
<path d="M35.3842 24.6084V32.6029H36.8327L36.8327 24.6084L35.3842 24.6084Z" fill="url(#paint9_linear_109_3335)"/>
<path d="M30.2231 24.6084V32.6029H31.4595V24.6084L30.2231 24.6084Z" fill="url(#paint10_linear_109_3335)"/>
<path d="M25.3098 24.6084V32.6029H26.3341V24.6084L25.3098 24.6084Z" fill="url(#paint11_linear_109_3335)"/>
<path d="M20.3956 24.6084V32.6029H21.0664L21.0664 24.6084L20.3956 24.6084Z" fill="url(#paint12_linear_109_3335)"/>
<path d="M15.2345 24.6084V32.6029H15.9053V24.6084L15.2345 24.6084Z" fill="url(#paint13_linear_109_3335)"/>
<path d="M10.0744 24.6084V32.6029H10.5684L10.5684 24.6084L10.0744 24.6084Z" fill="url(#paint14_linear_109_3335)"/>
<path d="M5.08932 24.6084L5.08932 32.6029H5.42112L5.42112 24.6084L5.08932 24.6084Z" fill="url(#paint15_linear_109_3335)"/>
<path d="M5.64398e-07 24.6084L0 32.603H0.252513L0.252513 24.6084L5.64398e-07 24.6084Z" fill="url(#paint16_linear_109_3335)"/>
<defs>
<linearGradient id="paint0_linear_109_3335" x1="0" y1="28.6057" x2="79.9484" y2="28.6057" gradientUnits="userSpaceOnUse">
<stop stop-color="#4858E9"/>
<stop offset="0.255208" stop-color="#14E480"/>
<stop offset="0.640625" stop-color="#38D2F3"/>
<stop offset="1" stop-color="#4858E9"/>
</linearGradient>
<linearGradient id="paint1_linear_109_3335" x1="0" y1="28.6057" x2="79.9484" y2="28.6057" gradientUnits="userSpaceOnUse">
<stop stop-color="#4858E9"/>
<stop offset="0.255208" stop-color="#14E480"/>
<stop offset="0.640625" stop-color="#38D2F3"/>
<stop offset="1" stop-color="#4858E9"/>
</linearGradient>
<linearGradient id="paint2_linear_109_3335" x1="0" y1="28.6057" x2="79.9484" y2="28.6057" gradientUnits="userSpaceOnUse">
<stop stop-color="#4858E9"/>
<stop offset="0.255208" stop-color="#14E480"/>
<stop offset="0.640625" stop-color="#38D2F3"/>
<stop offset="1" stop-color="#4858E9"/>
</linearGradient>
<linearGradient id="paint3_linear_109_3335" x1="0" y1="28.6057" x2="79.9484" y2="28.6057" gradientUnits="userSpaceOnUse">
<stop stop-color="#4858E9"/>
<stop offset="0.255208" stop-color="#14E480"/>
<stop offset="0.640625" stop-color="#38D2F3"/>
<stop offset="1" stop-color="#4858E9"/>
</linearGradient>
<linearGradient id="paint4_linear_109_3335" x1="0" y1="28.6057" x2="79.9484" y2="28.6057" gradientUnits="userSpaceOnUse">
<stop stop-color="#4858E9"/>
<stop offset="0.255208" stop-color="#14E480"/>
<stop offset="0.640625" stop-color="#38D2F3"/>
<stop offset="1" stop-color="#4858E9"/>
</linearGradient>
<linearGradient id="paint5_linear_109_3335" x1="0" y1="28.6057" x2="79.9484" y2="28.6057" gradientUnits="userSpaceOnUse">
<stop stop-color="#4858E9"/>
<stop offset="0.255208" stop-color="#14E480"/>
<stop offset="0.640625" stop-color="#38D2F3"/>
<stop offset="1" stop-color="#4858E9"/>
</linearGradient>
<linearGradient id="paint6_linear_109_3335" x1="0" y1="28.6057" x2="79.9484" y2="28.6057" gradientUnits="userSpaceOnUse">
<stop stop-color="#4858E9"/>
<stop offset="0.255208" stop-color="#14E480"/>
<stop offset="0.640625" stop-color="#38D2F3"/>
<stop offset="1" stop-color="#4858E9"/>
</linearGradient>
<linearGradient id="paint7_linear_109_3335" x1="0" y1="28.6057" x2="79.9484" y2="28.6057" gradientUnits="userSpaceOnUse">
<stop stop-color="#4858E9"/>
<stop offset="0.255208" stop-color="#14E480"/>
<stop offset="0.640625" stop-color="#38D2F3"/>
<stop offset="1" stop-color="#4858E9"/>
</linearGradient>
<linearGradient id="paint8_linear_109_3335" x1="0" y1="28.6057" x2="79.9484" y2="28.6057" gradientUnits="userSpaceOnUse">
<stop stop-color="#4858E9"/>
<stop offset="0.255208" stop-color="#14E480"/>
<stop offset="0.640625" stop-color="#38D2F3"/>
<stop offset="1" stop-color="#4858E9"/>
</linearGradient>
<linearGradient id="paint9_linear_109_3335" x1="0" y1="28.6057" x2="79.9484" y2="28.6057" gradientUnits="userSpaceOnUse">
<stop stop-color="#4858E9"/>
<stop offset="0.255208" stop-color="#14E480"/>
<stop offset="0.640625" stop-color="#38D2F3"/>
<stop offset="1" stop-color="#4858E9"/>
</linearGradient>
<linearGradient id="paint10_linear_109_3335" x1="0" y1="28.6057" x2="79.9484" y2="28.6057" gradientUnits="userSpaceOnUse">
<stop stop-color="#4858E9"/>
<stop offset="0.255208" stop-color="#14E480"/>
<stop offset="0.640625" stop-color="#38D2F3"/>
<stop offset="1" stop-color="#4858E9"/>
</linearGradient>
<linearGradient id="paint11_linear_109_3335" x1="0" y1="28.6057" x2="79.9484" y2="28.6057" gradientUnits="userSpaceOnUse">
<stop stop-color="#4858E9"/>
<stop offset="0.255208" stop-color="#14E480"/>
<stop offset="0.640625" stop-color="#38D2F3"/>
<stop offset="1" stop-color="#4858E9"/>
</linearGradient>
<linearGradient id="paint12_linear_109_3335" x1="0" y1="28.6057" x2="79.9484" y2="28.6057" gradientUnits="userSpaceOnUse">
<stop stop-color="#4858E9"/>
<stop offset="0.255208" stop-color="#14E480"/>
<stop offset="0.640625" stop-color="#38D2F3"/>
<stop offset="1" stop-color="#4858E9"/>
</linearGradient>
<linearGradient id="paint13_linear_109_3335" x1="0" y1="28.6057" x2="79.9484" y2="28.6057" gradientUnits="userSpaceOnUse">
<stop stop-color="#4858E9"/>
<stop offset="0.255208" stop-color="#14E480"/>
<stop offset="0.640625" stop-color="#38D2F3"/>
<stop offset="1" stop-color="#4858E9"/>
</linearGradient>
<linearGradient id="paint14_linear_109_3335" x1="0" y1="28.6057" x2="79.9484" y2="28.6057" gradientUnits="userSpaceOnUse">
<stop stop-color="#4858E9"/>
<stop offset="0.255208" stop-color="#14E480"/>
<stop offset="0.640625" stop-color="#38D2F3"/>
<stop offset="1" stop-color="#4858E9"/>
</linearGradient>
<linearGradient id="paint15_linear_109_3335" x1="0" y1="28.6057" x2="79.9484" y2="28.6057" gradientUnits="userSpaceOnUse">
<stop stop-color="#4858E9"/>
<stop offset="0.255208" stop-color="#14E480"/>
<stop offset="0.640625" stop-color="#38D2F3"/>
<stop offset="1" stop-color="#4858E9"/>
</linearGradient>
<linearGradient id="paint16_linear_109_3335" x1="0" y1="28.6057" x2="79.9484" y2="28.6057" gradientUnits="userSpaceOnUse">
<stop stop-color="#4858E9"/>
<stop offset="0.255208" stop-color="#14E480"/>
<stop offset="0.640625" stop-color="#38D2F3"/>
<stop offset="1" stop-color="#4858E9"/>
</linearGradient>
</defs>
</svg>
