<svg width="30" height="31" viewBox="0 0 30 31" fill="none" xmlns="http://www.w3.org/2000/svg">
<path fill-rule="evenodd" clip-rule="evenodd" d="M14.4243 2.24212C7.77633 2.24212 2.36785 7.7658 2.36785 14.5572C2.36785 21.3485 7.77633 26.8737 14.4243 26.8737C21.0707 26.8737 26.4792 21.3485 26.4792 14.5572C26.4792 7.7658 21.0707 2.24212 14.4243 2.24212ZM14.4243 29.1161C6.56616 29.1161 0.172852 22.5848 0.172852 14.5572C0.172852 6.52951 6.56616 -0.000244141 14.4243 -0.000244141C22.2824 -0.000244141 28.6742 6.52951 28.6742 14.5572C28.6742 22.5848 22.2824 29.1161 14.4243 29.1161Z" fill="white"/>
<path fill-rule="evenodd" clip-rule="evenodd" d="M28.729 30.9768C28.4495 30.9768 28.1686 30.8677 27.9535 30.6494L22.7967 25.3963C22.3679 24.9583 22.3665 24.2482 22.7952 23.8102C23.2225 23.3692 23.9176 23.3722 24.3478 23.8072L29.5046 29.0618C29.9334 29.4998 29.9348 30.2084 29.5061 30.6464C29.2924 30.8677 29.01 30.9768 28.729 30.9768Z" fill="white"/>
</svg>
